<svg xmlns="http://www.w3.org/2000/svg" viewBox="0 0 640 400" width="640" height="400">
  <defs><style>@import url('https://fonts.googleapis.com/css2?family=Playfair+Display:wght@600;700&family=Montserrat:wght@400;500;600&display=swap');</style></defs>
  
  <g fill="none" stroke="#C8A64B" stroke-width="1" opacity="0.16">
      <circle cx="320" cy="205" r="180.0"/>
      <circle cx="320" cy="205" r="147.6"/>
      <circle cx="320" cy="205" r="93.6"/>
      <circle cx="320" cy="205" r="54.0"/>
      <circle cx="446.0" cy="205.0" r="8.1"/><circle cx="441.7" cy="237.6" r="8.1"/><circle cx="429.1" cy="268.0" r="8.1"/><circle cx="409.1" cy="294.1" r="8.1"/><circle cx="383.0" cy="314.1" r="8.1"/><circle cx="352.6" cy="326.7" r="8.1"/><circle cx="320.0" cy="331.0" r="8.1"/><circle cx="287.4" cy="326.7" r="8.1"/><circle cx="257.0" cy="314.1" r="8.1"/><circle cx="230.9" cy="294.1" r="8.1"/><circle cx="210.9" cy="268.0" r="8.1"/><circle cx="198.3" cy="237.6" r="8.1"/><circle cx="194.0" cy="205.0" r="8.1"/><circle cx="198.3" cy="172.4" r="8.1"/><circle cx="210.9" cy="142.0" r="8.1"/><circle cx="230.9" cy="115.9" r="8.1"/><circle cx="257.0" cy="95.9" r="8.1"/><circle cx="287.4" cy="83.3" r="8.1"/><circle cx="320.0" cy="79.0" r="8.1"/><circle cx="352.6" cy="83.3" r="8.1"/><circle cx="383.0" cy="95.9" r="8.1"/><circle cx="409.1" cy="115.9" r="8.1"/><circle cx="429.1" cy="142.0" r="8.1"/><circle cx="441.7" cy="172.4" r="8.1"/>
      <circle cx="438.8" cy="205.0" r="30.6"/><circle cx="422.9" cy="264.4" r="30.6"/><circle cx="379.4" cy="307.9" r="30.6"/><circle cx="320.0" cy="323.8" r="30.6"/><circle cx="260.6" cy="307.9" r="30.6"/><circle cx="217.1" cy="264.4" r="30.6"/><circle cx="201.2" cy="205.0" r="30.6"/><circle cx="217.1" cy="145.6" r="30.6"/><circle cx="260.6" cy="102.1" r="30.6"/><circle cx="320.0" cy="86.2" r="30.6"/><circle cx="379.4" cy="102.1" r="30.6"/><circle cx="422.9" cy="145.6" r="30.6"/>
      <circle cx="395.6" cy="205.0" r="21.6"/><circle cx="385.5" cy="242.8" r="21.6"/><circle cx="357.8" cy="270.5" r="21.6"/><circle cx="320.0" cy="280.6" r="21.6"/><circle cx="282.2" cy="270.5" r="21.6"/><circle cx="254.5" cy="242.8" r="21.6"/><circle cx="244.4" cy="205.0" r="21.6"/><circle cx="254.5" cy="167.2" r="21.6"/><circle cx="282.2" cy="139.5" r="21.6"/><circle cx="320.0" cy="129.4" r="21.6"/><circle cx="357.8" cy="139.5" r="21.6"/><circle cx="385.5" cy="167.2" r="21.6"/>
      <g transform="translate(320,205) rotate(0.0)"><ellipse cx="0" cy="-54.0" rx="9.0" ry="39.6"/></g><g transform="translate(320,205) rotate(30.0)"><ellipse cx="0" cy="-54.0" rx="9.0" ry="39.6"/></g><g transform="translate(320,205) rotate(60.0)"><ellipse cx="0" cy="-54.0" rx="9.0" ry="39.6"/></g><g transform="translate(320,205) rotate(90.0)"><ellipse cx="0" cy="-54.0" rx="9.0" ry="39.6"/></g><g transform="translate(320,205) rotate(120.0)"><ellipse cx="0" cy="-54.0" rx="9.0" ry="39.6"/></g><g transform="translate(320,205) rotate(150.0)"><ellipse cx="0" cy="-54.0" rx="9.0" ry="39.6"/></g><g transform="translate(320,205) rotate(180.0)"><ellipse cx="0" cy="-54.0" rx="9.0" ry="39.6"/></g><g transform="translate(320,205) rotate(210.0)"><ellipse cx="0" cy="-54.0" rx="9.0" ry="39.6"/></g><g transform="translate(320,205) rotate(240.0)"><ellipse cx="0" cy="-54.0" rx="9.0" ry="39.6"/></g><g transform="translate(320,205) rotate(270.0)"><ellipse cx="0" cy="-54.0" rx="9.0" ry="39.6"/></g><g transform="translate(320,205) rotate(300.0)"><ellipse cx="0" cy="-54.0" rx="9.0" ry="39.6"/></g><g transform="translate(320,205) rotate(330.0)"><ellipse cx="0" cy="-54.0" rx="9.0" ry="39.6"/></g>
      <circle cx="320" cy="205" r="7.2"/>
    </g>
  <g fill="#C8A64B">
      <rect x="272.0" y="138.0" width="96.0" height="19.5" rx="3.0"/>
      <polygon points="275.0,141.0 287.0,93.0 303.5,123.0 320.0,78.0 336.5,123.0 353.0,93.0 365.0,141.0"/>
      <circle cx="287.0" cy="87.0" r="7.5"/>
      <circle cx="320.0" cy="72.0" r="8.2"/>
      <circle cx="353.0" cy="87.0" r="7.5"/>
    </g>
  <text x="320" y="280" text-anchor="middle" font-family="'Playfair Display', Georgia, serif" font-weight="700" font-size="120" letter-spacing="6" fill="#F4F1EC">B.I.L.D</text>
  <g>
    <line x1="130" y1="318" x2="208" y2="318" stroke="#C8A64B" stroke-width="1.5"/>
    <text x="320" y="324" text-anchor="middle" font-family="'Montserrat', sans-serif" font-weight="500" font-size="22" letter-spacing="8" fill="#C8A64B">ESTD 2019</text>
    <line x1="432" y1="318" x2="510" y2="318" stroke="#C8A64B" stroke-width="1.5"/>
  </g>
</svg>